<mxfile host="app.diagrams.net" modified="2023-05-26T11:47:28.079Z" agent="Mozilla/5.0 (Windows NT 10.0; Win64; x64) AppleWebKit/537.36 (KHTML, like Gecko) Chrome/113.0.0.0 Safari/537.36" etag="z0UQb4S2N10bkfB9hbws" version="21.3.4" type="device">
  <diagram name="Strona-1" id="5ofQGHB7zFDWl8jtgirQ">
    <mxGraphModel dx="1674" dy="768" grid="1" gridSize="10" guides="1" tooltips="1" connect="1" arrows="1" fold="1" page="1" pageScale="1" pageWidth="827" pageHeight="1169" math="0" shadow="0">
      <root>
        <mxCell id="0" />
        <mxCell id="1" parent="0" />
        <mxCell id="zeCc_JxSLmMLiRayJICC-1" value="" style="ellipse;html=1;shape=startState;fillColor=#000000;strokeColor=#ff0000;" vertex="1" parent="1">
          <mxGeometry x="384" y="30" width="30" height="30" as="geometry" />
        </mxCell>
        <mxCell id="zeCc_JxSLmMLiRayJICC-2" value="" style="edgeStyle=orthogonalEdgeStyle;html=1;verticalAlign=bottom;endArrow=open;endSize=8;strokeColor=#ff0000;rounded=0;" edge="1" source="zeCc_JxSLmMLiRayJICC-1" parent="1">
          <mxGeometry relative="1" as="geometry">
            <mxPoint x="399" y="120" as="targetPoint" />
          </mxGeometry>
        </mxCell>
        <mxCell id="zeCc_JxSLmMLiRayJICC-3" value="Przyjęcie zamówienia" style="rounded=1;whiteSpace=wrap;html=1;arcSize=40;fontColor=#000000;fillColor=#ffffc0;strokeColor=#ff0000;" vertex="1" parent="1">
          <mxGeometry x="339" y="120" width="120" height="40" as="geometry" />
        </mxCell>
        <mxCell id="zeCc_JxSLmMLiRayJICC-4" value="" style="edgeStyle=orthogonalEdgeStyle;html=1;verticalAlign=bottom;endArrow=open;endSize=8;strokeColor=#ff0000;rounded=0;entryX=0.475;entryY=0.4;entryDx=0;entryDy=0;entryPerimeter=0;" edge="1" source="zeCc_JxSLmMLiRayJICC-3" parent="1" target="zeCc_JxSLmMLiRayJICC-9">
          <mxGeometry relative="1" as="geometry">
            <mxPoint x="380" y="200" as="targetPoint" />
          </mxGeometry>
        </mxCell>
        <mxCell id="zeCc_JxSLmMLiRayJICC-5" value="Płatność za samochód" style="rounded=1;whiteSpace=wrap;html=1;arcSize=40;fontColor=#000000;fillColor=#ffffc0;strokeColor=#ff0000;" vertex="1" parent="1">
          <mxGeometry x="219" y="250" width="120" height="40" as="geometry" />
        </mxCell>
        <mxCell id="zeCc_JxSLmMLiRayJICC-6" value="" style="edgeStyle=orthogonalEdgeStyle;html=1;verticalAlign=bottom;endArrow=open;endSize=8;strokeColor=#ff0000;rounded=0;entryX=0.5;entryY=0;entryDx=0;entryDy=0;" edge="1" source="zeCc_JxSLmMLiRayJICC-5" parent="1" target="zeCc_JxSLmMLiRayJICC-20">
          <mxGeometry relative="1" as="geometry">
            <mxPoint x="399" y="330" as="targetPoint" />
          </mxGeometry>
        </mxCell>
        <mxCell id="zeCc_JxSLmMLiRayJICC-7" value="" style="shape=line;html=1;strokeWidth=6;strokeColor=#ff0000;" vertex="1" parent="1">
          <mxGeometry x="280" y="380" width="200" height="10" as="geometry" />
        </mxCell>
        <mxCell id="zeCc_JxSLmMLiRayJICC-8" value="" style="edgeStyle=orthogonalEdgeStyle;html=1;verticalAlign=bottom;endArrow=open;endSize=8;strokeColor=#ff0000;rounded=0;entryX=0.5;entryY=0;entryDx=0;entryDy=0;" edge="1" source="zeCc_JxSLmMLiRayJICC-7" parent="1" target="zeCc_JxSLmMLiRayJICC-17">
          <mxGeometry relative="1" as="geometry">
            <mxPoint x="380" y="440" as="targetPoint" />
          </mxGeometry>
        </mxCell>
        <mxCell id="zeCc_JxSLmMLiRayJICC-9" value="" style="shape=line;html=1;strokeWidth=6;strokeColor=#ff0000;" vertex="1" parent="1">
          <mxGeometry x="280" y="210" width="200" height="10" as="geometry" />
        </mxCell>
        <mxCell id="zeCc_JxSLmMLiRayJICC-10" value="" style="edgeStyle=orthogonalEdgeStyle;html=1;verticalAlign=bottom;endArrow=open;endSize=8;strokeColor=#ff0000;rounded=0;entryX=0.25;entryY=0;entryDx=0;entryDy=0;exitX=0.25;exitY=0.5;exitDx=0;exitDy=0;exitPerimeter=0;" edge="1" source="zeCc_JxSLmMLiRayJICC-9" parent="1" target="zeCc_JxSLmMLiRayJICC-5">
          <mxGeometry relative="1" as="geometry">
            <mxPoint x="380" y="290" as="targetPoint" />
          </mxGeometry>
        </mxCell>
        <mxCell id="zeCc_JxSLmMLiRayJICC-11" value="Przygotowanie samochodu" style="rounded=1;whiteSpace=wrap;html=1;arcSize=40;fontColor=#000000;fillColor=#ffffc0;strokeColor=#ff0000;" vertex="1" parent="1">
          <mxGeometry x="400" y="260" width="120" height="40" as="geometry" />
        </mxCell>
        <mxCell id="zeCc_JxSLmMLiRayJICC-12" value="" style="edgeStyle=orthogonalEdgeStyle;html=1;verticalAlign=bottom;endArrow=open;endSize=8;strokeColor=#ff0000;rounded=0;entryX=0.75;entryY=0.5;entryDx=0;entryDy=0;entryPerimeter=0;" edge="1" source="zeCc_JxSLmMLiRayJICC-11" parent="1" target="zeCc_JxSLmMLiRayJICC-7">
          <mxGeometry relative="1" as="geometry">
            <mxPoint x="460" y="360" as="targetPoint" />
          </mxGeometry>
        </mxCell>
        <mxCell id="zeCc_JxSLmMLiRayJICC-13" value="" style="edgeStyle=orthogonalEdgeStyle;html=1;verticalAlign=bottom;endArrow=open;endSize=8;strokeColor=#ff0000;rounded=0;exitX=0.75;exitY=0.5;exitDx=0;exitDy=0;exitPerimeter=0;entryX=0.5;entryY=0;entryDx=0;entryDy=0;" edge="1" parent="1" source="zeCc_JxSLmMLiRayJICC-9" target="zeCc_JxSLmMLiRayJICC-11">
          <mxGeometry relative="1" as="geometry">
            <mxPoint x="390" y="470" as="targetPoint" />
            <mxPoint x="390" y="400" as="sourcePoint" />
          </mxGeometry>
        </mxCell>
        <mxCell id="zeCc_JxSLmMLiRayJICC-16" value="Zakończone Zamówienie" style="ellipse;html=1;shape=endState;fillColor=#000000;strokeColor=#ff0000;" vertex="1" parent="1">
          <mxGeometry x="365" y="570" width="30" height="30" as="geometry" />
        </mxCell>
        <mxCell id="zeCc_JxSLmMLiRayJICC-17" value="Samochód do odbioru" style="swimlane;fontStyle=1;align=center;verticalAlign=middle;childLayout=stackLayout;horizontal=1;startSize=30;horizontalStack=0;resizeParent=0;resizeLast=1;container=0;fontColor=#000000;collapsible=0;rounded=1;arcSize=30;strokeColor=#ff0000;fillColor=#ffffc0;swimlaneFillColor=#ffffc0;dropTarget=0;" vertex="1" parent="1">
          <mxGeometry x="300" y="450" width="160" height="60" as="geometry" />
        </mxCell>
        <mxCell id="zeCc_JxSLmMLiRayJICC-18" value="-Wyświetl czas pozostały na odbiór" style="text;html=1;strokeColor=none;fillColor=none;align=center;verticalAlign=middle;spacingLeft=4;spacingRight=4;whiteSpace=wrap;overflow=hidden;rotatable=0;fontColor=#000000;" vertex="1" parent="zeCc_JxSLmMLiRayJICC-17">
          <mxGeometry y="30" width="160" height="30" as="geometry" />
        </mxCell>
        <mxCell id="zeCc_JxSLmMLiRayJICC-19" value="" style="edgeStyle=orthogonalEdgeStyle;html=1;verticalAlign=bottom;endArrow=open;endSize=8;strokeColor=#ff0000;rounded=0;entryX=0.5;entryY=0;entryDx=0;entryDy=0;" edge="1" source="zeCc_JxSLmMLiRayJICC-17" parent="1" target="zeCc_JxSLmMLiRayJICC-16">
          <mxGeometry relative="1" as="geometry">
            <mxPoint x="400" y="570" as="targetPoint" />
          </mxGeometry>
        </mxCell>
        <mxCell id="zeCc_JxSLmMLiRayJICC-20" value="" style="rhombus;whiteSpace=wrap;html=1;fontColor=#000000;fillColor=#ffffc0;strokeColor=#ff0000;" vertex="1" parent="1">
          <mxGeometry x="180" y="320" width="80" height="40" as="geometry" />
        </mxCell>
        <mxCell id="zeCc_JxSLmMLiRayJICC-21" value="Nie poprawna&amp;nbsp;&lt;br&gt;płatność" style="edgeStyle=orthogonalEdgeStyle;html=1;align=left;verticalAlign=bottom;endArrow=open;endSize=8;strokeColor=#ff0000;rounded=0;entryX=0;entryY=0.25;entryDx=0;entryDy=0;" edge="1" source="zeCc_JxSLmMLiRayJICC-20" parent="1" target="zeCc_JxSLmMLiRayJICC-3">
          <mxGeometry x="-0.3047" y="-10" relative="1" as="geometry">
            <mxPoint x="260" y="320" as="targetPoint" />
            <Array as="points">
              <mxPoint x="120" y="130" />
            </Array>
            <mxPoint as="offset" />
          </mxGeometry>
        </mxCell>
        <mxCell id="zeCc_JxSLmMLiRayJICC-22" value="Poprawna płatność" style="edgeStyle=orthogonalEdgeStyle;html=1;align=left;verticalAlign=top;endArrow=open;endSize=8;strokeColor=#ff0000;rounded=0;entryX=0.25;entryY=0.5;entryDx=0;entryDy=0;entryPerimeter=0;" edge="1" source="zeCc_JxSLmMLiRayJICC-20" parent="1" target="zeCc_JxSLmMLiRayJICC-7">
          <mxGeometry x="-1" relative="1" as="geometry">
            <mxPoint x="120" y="400" as="targetPoint" />
            <mxPoint as="offset" />
          </mxGeometry>
        </mxCell>
      </root>
    </mxGraphModel>
  </diagram>
</mxfile>
